<?xml version="1.0" encoding="UTF-8" standalone="no"?>
<!DOCTYPE svg PUBLIC "-//W3C//DTD SVG 1.1//EN"
 "http://www.w3.org/Graphics/SVG/1.1/DTD/svg11.dtd">
<!-- Generated by graphviz version 2.40.1 (20161225.0304)
 -->
<!-- Title: dependencies Pages: 1 -->
<svg width="742pt" height="284pt"
 viewBox="0.00 0.00 742.00 284.00" xmlns="http://www.w3.org/2000/svg" xmlns:xlink="http://www.w3.org/1999/xlink">
<g id="graph0" class="graph" transform="scale(1 1) rotate(0) translate(4 280)">
<title>dependencies</title>
<polygon fill="#ffffff" stroke="transparent" points="-4,4 -4,-280 738,-280 738,4 -4,4"/>
<text text-anchor="start" x="346.0091" y="-42.4" font-family="sans-serif" font-weight="bold" font-size="14.00" fill="#000000">Legend</text>
<polygon fill="#ffffb3" stroke="transparent" points="133,-10 133,-30 153,-30 153,-10 133,-10"/>
<text text-anchor="start" x="156.629" y="-15.4" font-family="sans-serif" font-size="14.00" fill="#000000"> &#160;Declarations</text>
<polygon fill="#8dd3c7" stroke="transparent" points="246,-10 246,-30 266,-30 266,-10 246,-10"/>
<text text-anchor="start" x="269.7251" y="-15.4" font-family="sans-serif" font-size="14.00" fill="#000000"> &#160;Module</text>
<polygon fill="#80b1d3" stroke="transparent" points="332,-10 332,-30 352,-30 352,-10 332,-10"/>
<text text-anchor="start" x="355.7812" y="-15.4" font-family="sans-serif" font-size="14.00" fill="#000000"> &#160;Bootstrap</text>
<polygon fill="#fdb462" stroke="transparent" points="429,-10 429,-30 449,-30 449,-10 429,-10"/>
<text text-anchor="start" x="452.6732" y="-15.4" font-family="sans-serif" font-size="14.00" fill="#000000"> &#160;Providers</text>
<polygon fill="#fb8072" stroke="transparent" points="525,-10 525,-30 545,-30 545,-10 525,-10"/>
<text text-anchor="start" x="548.7258" y="-15.4" font-family="sans-serif" font-size="14.00" fill="#000000"> &#160;Exports</text>
<g id="clust1" class="cluster">
<title>cluster_AppModule</title>
<polygon fill="none" stroke="#000000" stroke-dasharray="1,5" points="8,-70 8,-268 726,-268 726,-70 8,-70"/>
</g>
<g id="clust2" class="cluster">
<title>cluster_AppModule_declarations</title>
<polygon fill="none" stroke="#000000" points="168,-78 168,-130 718,-130 718,-78 168,-78"/>
</g>
<g id="clust7" class="cluster">
<title>cluster_AppModule_imports</title>
<polygon fill="none" stroke="#000000" points="16,-78 16,-130 160,-130 160,-78 16,-78"/>
</g>
<g id="clust9" class="cluster">
<title>cluster_AppModule_bootstrap</title>
<polygon fill="none" stroke="#000000" points="288,-208 288,-260 412,-260 412,-208 288,-208"/>
</g>
<!-- AppComponent -->
<g id="node1" class="node">
<title>AppComponent</title>
<polygon fill="#ffffb3" stroke="#000000" points="709.9399,-122 604.0601,-122 604.0601,-86 709.9399,-86 709.9399,-122"/>
<text text-anchor="middle" x="657" y="-99.8" font-family="Times,serif" font-size="14.00" fill="#000000">AppComponent</text>
</g>
<!-- AppModule -->
<g id="node5" class="node">
<title>AppModule</title>
<polygon fill="#8dd3c7" stroke="#000000" points="391.6571,-187 388.6571,-191 367.6571,-191 364.6571,-187 308.3429,-187 308.3429,-151 391.6571,-151 391.6571,-187"/>
<text text-anchor="middle" x="350" y="-164.8" font-family="Times,serif" font-size="14.00" fill="#000000">AppModule</text>
</g>
<!-- AppComponent&#45;&gt;AppModule -->
<g id="edge1" class="edge">
<title>AppComponent&#45;&gt;AppModule</title>
<path fill="none" stroke="#000000" d="M657,-122.2843C657,-143.3211 657,-175 657,-175 657,-175 401.7229,-175 401.7229,-175"/>
<polygon fill="#000000" stroke="#000000" points="401.7229,-171.5001 391.7229,-175 401.7229,-178.5001 401.7229,-171.5001"/>
</g>
<!-- CreatetemplateComponent -->
<g id="node2" class="node">
<title>CreatetemplateComponent</title>
<polygon fill="#ffffb3" stroke="#000000" points="586.0702,-122 419.9298,-122 419.9298,-86 586.0702,-86 586.0702,-122"/>
<text text-anchor="middle" x="503" y="-99.8" font-family="Times,serif" font-size="14.00" fill="#000000">CreatetemplateComponent</text>
</g>
<!-- CreatetemplateComponent&#45;&gt;AppModule -->
<g id="edge2" class="edge">
<title>CreatetemplateComponent&#45;&gt;AppModule</title>
<path fill="none" stroke="#000000" d="M503,-122.0225C503,-139.3734 503,-163 503,-163 503,-163 401.8079,-163 401.8079,-163"/>
<polygon fill="#000000" stroke="#000000" points="401.808,-159.5001 391.8079,-163 401.8079,-166.5001 401.808,-159.5001"/>
</g>
<!-- EditComponent -->
<g id="node3" class="node">
<title>EditComponent</title>
<polygon fill="#ffffb3" stroke="#000000" points="402.1667,-122 297.8333,-122 297.8333,-86 402.1667,-86 402.1667,-122"/>
<text text-anchor="middle" x="350" y="-99.8" font-family="Times,serif" font-size="14.00" fill="#000000">EditComponent</text>
</g>
<!-- EditComponent&#45;&gt;AppModule -->
<g id="edge3" class="edge">
<title>EditComponent&#45;&gt;AppModule</title>
<path fill="none" stroke="#000000" d="M350,-122.1061C350,-122.1061 350,-140.991 350,-140.991"/>
<polygon fill="#000000" stroke="#000000" points="346.5001,-140.9909 350,-150.991 353.5001,-140.991 346.5001,-140.9909"/>
</g>
<!-- ListComponent -->
<g id="node4" class="node">
<title>ListComponent</title>
<polygon fill="#ffffb3" stroke="#000000" points="279.6109,-122 176.3891,-122 176.3891,-86 279.6109,-86 279.6109,-122"/>
<text text-anchor="middle" x="228" y="-99.8" font-family="Times,serif" font-size="14.00" fill="#000000">ListComponent</text>
</g>
<!-- ListComponent&#45;&gt;AppModule -->
<g id="edge4" class="edge">
<title>ListComponent&#45;&gt;AppModule</title>
<path fill="none" stroke="#000000" d="M228,-122.0225C228,-139.3734 228,-163 228,-163 228,-163 298.0145,-163 298.0145,-163"/>
<polygon fill="#000000" stroke="#000000" points="298.0146,-166.5001 308.0145,-163 298.0145,-159.5001 298.0146,-166.5001"/>
</g>
<!-- AppComponent  -->
<g id="node7" class="node">
<title>AppComponent </title>
<polygon fill="#80b1d3" stroke="#000000" points="404.439,-252 295.561,-252 295.561,-216 404.439,-216 404.439,-252"/>
<text text-anchor="middle" x="350" y="-229.8" font-family="Times,serif" font-size="14.00" fill="#000000">AppComponent </text>
</g>
<!-- AppModule&#45;&gt;AppComponent  -->
<g id="edge6" class="edge">
<title>AppModule&#45;&gt;AppComponent </title>
<path fill="none" stroke="#000000" stroke-dasharray="1,5" d="M350,-187.1061C350,-187.1061 350,-205.991 350,-205.991"/>
<polygon fill="#000000" stroke="#000000" points="346.5001,-205.9909 350,-215.991 353.5001,-205.991 346.5001,-205.9909"/>
</g>
<!-- AppRoutingModule -->
<g id="node6" class="node">
<title>AppRoutingModule</title>
<polygon fill="#8dd3c7" stroke="#000000" points="152.2744,-122 149.2744,-126 128.2744,-126 125.2744,-122 23.7256,-122 23.7256,-86 152.2744,-86 152.2744,-122"/>
<text text-anchor="middle" x="88" y="-99.8" font-family="Times,serif" font-size="14.00" fill="#000000">AppRoutingModule</text>
</g>
<!-- AppRoutingModule&#45;&gt;AppModule -->
<g id="edge5" class="edge">
<title>AppRoutingModule&#45;&gt;AppModule</title>
<path fill="none" stroke="#000000" d="M88,-122.2843C88,-143.3211 88,-175 88,-175 88,-175 298.1956,-175 298.1956,-175"/>
<polygon fill="#000000" stroke="#000000" points="298.1956,-178.5001 308.1956,-175 298.1956,-171.5001 298.1956,-178.5001"/>
</g>
</g>
</svg>
